<svg xmlns="http://www.w3.org/2000/svg" width="40" height="40" viewBox="0 0 40 40">
    <g fill="none" fill-rule="evenodd">
        <circle cx="20" cy="20" r="20" fill="#15D4EF" fill-rule="nonzero"/>
        <g fill="#FFF">
            <path fill-rule="nonzero" d="M25.682 10.952h-2.41l-.497-2.23a.684.684 0 0 0-.665-.54h-4.22a.684.684 0 0 0-.665.54l-.497 2.23h-2.41a.687.687 0 0 0-.682.692v19.482c0 .382.306.692.682.692h11.364c.376 0 .682-.31.682-.692V11.644a.687.687 0 0 0-.682-.692zm-7.247-1.385h3.13l.309 1.385h-3.748l.309-1.385zM25 30.433H15V12.337h10v18.096z"/>
            <path d="M22.15 21.028a.68.68 0 0 0-.584-.336h-1.999l1.035-1.983a.698.698 0 0 0-.283-.937.677.677 0 0 0-.921.288l-1.566 3a.702.702 0 0 0 .018.682.68.68 0 0 0 .584.335h1.999l-1.035 1.984a.698.698 0 0 0 .283.936c.333.18.745.05.921-.287l1.567-3a.702.702 0 0 0-.019-.682z"/>
        </g>
    </g>
</svg>
