<svg xmlns="http://www.w3.org/2000/svg" width="21" height="21" viewBox="0 0 21 21">
    <g fill="#FFF" fill-rule="nonzero">
        <path d="M10.459 0A10.453 10.453 0 0 0 0 10.459C0 16.197 4.636 21 10.459 21 16.234 21 21 16.238 21 10.459 21 4.629 16.19 0 10.459 0zm0 19.77c-5.089 0-9.229-4.177-9.229-9.311 0-5.089 4.14-9.229 9.229-9.229 5.134 0 9.31 4.14 9.31 9.229 0 5.134-4.176 9.31-9.31 9.31z"/>
        <path d="M10.459 2.46c-4.41 0-7.998 3.589-7.998 7.999 0 4.404 3.571 8.08 7.998 8.08 4.409 0 8.08-3.656 8.08-8.08 0-4.43-3.679-7.998-8.08-7.998zm0 14.849c-3.732 0-6.768-3.073-6.768-6.85a6.775 6.775 0 0 1 6.768-6.768c3.777 0 6.85 3.036 6.85 6.768 0 3.713-3.137 6.85-6.85 6.85z"/>
        <path d="M13.002 7.383H7.998a.615.615 0 0 0-.615.615v5.004c0 .34.275.615.615.615h5.004c.34 0 .615-.275.615-.615V7.998a.615.615 0 0 0-.615-.615zm-.615 5.004H8.613V8.613h3.774v3.774z"/>
    </g>
</svg>
