<svg xmlns="http://www.w3.org/2000/svg" width="44" height="44" viewBox="0 0 44 44">
    <g fill="#15D4EF" fill-rule="nonzero">
        <path d="M29.734 15.555c-.456 0-.908.022-1.354.065.043-.45.065-.902.065-1.354C28.445 6.4 22.085 0 14.265 0 6.427 0 0 6.428 0 14.266c0 7.818 6.4 14.18 14.266 14.18.452 0 .904-.023 1.354-.066-.043.446-.065.898-.065 1.354C15.555 37.6 21.915 44 29.735 44 37.573 44 44 37.572 44 29.734c0-7.818-6.4-14.18-14.266-14.18zM14.266 25.867c-6.445 0-11.688-5.204-11.688-11.601 0-6.445 5.243-11.688 11.688-11.688 6.397 0 11.601 5.243 11.601 11.688 0 .628-.051 1.254-.15 1.87a14.151 14.151 0 0 0-4.719 2.437 9.03 9.03 0 0 0-6.732-3.015c-3.078 0-5.928 1.562-7.622 4.178a1.289 1.289 0 1 0 2.164 1.402c1.235-1.908 3.224-3.002 5.458-3.002 1.9 0 3.624.793 4.857 2.205a14.173 14.173 0 0 0-2.987 5.375c-.616.1-1.242.151-1.87.151zm15.468 15.555c-6.397 0-11.601-5.243-11.601-11.688 0-6.397 5.204-11.601 11.601-11.601 6.445 0 11.688 5.204 11.688 11.601 0 6.445-5.243 11.688-11.688 11.688z"/>
        <path d="M37.469 28.445a1.29 1.29 0 0 0-1.29 1.29 6.453 6.453 0 0 1-6.445 6.445 6.453 6.453 0 0 1-6.445-6.446 1.29 1.29 0 0 0-2.578 0c0 4.976 4.048 9.024 9.023 9.024 4.976 0 9.024-4.048 9.024-9.024a1.29 1.29 0 0 0-1.29-1.289z"/>
        <circle cx="11.688" cy="11.688" r="1.289"/>
        <circle cx="16.844" cy="11.688" r="1.289"/>
        <circle cx="27.156" cy="27.156" r="1.289"/>
        <circle cx="32.313" cy="27.156" r="1.289"/>
    </g>
</svg>
