<svg xmlns="http://www.w3.org/2000/svg" width="40" height="40" viewBox="0 0 40 40">
    <g fill="none" fill-rule="evenodd">
        <circle cx="20" cy="20" r="20" fill="#15D4EF" fill-rule="nonzero"/>
        <g fill="#FFF">
            <path fill-rule="nonzero" d="M24.231 18.33l-4.01-2.683 1.222-2.454a.766.766 0 0 0-.236-.962.76.76 0 0 0-.984.08l-4.57 4.586a.765.765 0 0 0 .116 1.176l4.01 2.683-1.222 2.454a.766.766 0 0 0 .236.962.76.76 0 0 0 .984-.08l4.57-4.586a.765.765 0 0 0-.116-1.176zm-2.756 1.897a.763.763 0 0 0-.29-.369l-3.798-2.54 1.138-1.141a.761.761 0 0 0 .29.367l3.798 2.54-1.138 1.143z"/>
            <path d="M32.238 16.673h-1.574a.763.763 0 0 0-.762.764c0 .422.341.765.762.765h1.574c.421 0 .762-.343.762-.765a.763.763 0 0 0-.762-.764zM7 17.437c0 .422.341.765.762.765h1.574c.42 0 .762-.343.762-.765a.763.763 0 0 0-.762-.764H7.762a.763.763 0 0 0-.762.764zM29.156 8.25a.76.76 0 0 0-1.077 0l-1.077 1.08a.766.766 0 0 0 0 1.081.76.76 0 0 0 1.077 0l1.077-1.08a.766.766 0 0 0 0-1.082zM10.844 26.625a.76.76 0 0 0 1.077 0l1.077-1.08a.766.766 0 0 0 0-1.082.76.76 0 0 0-1.077 0l-1.077 1.081a.766.766 0 0 0 0 1.081zM11.92 8.25a.76.76 0 0 0-1.076 0 .766.766 0 0 0 0 1.08l1.077 1.081a.76.76 0 0 0 1.077 0 .766.766 0 0 0 0-1.08L11.92 8.248zM28.08 24.463a.76.76 0 0 0-1.078 0 .766.766 0 0 0 0 1.081l1.077 1.081a.76.76 0 0 0 1.077 0 .766.766 0 0 0 0-1.08l-1.077-1.082z"/>
            <path fill-rule="nonzero" d="M18.202 9.218c-3.288.69-5.882 3.396-6.454 6.736-.559 3.266.76 6.468 3.44 8.357.628.443 1.003 1.228 1.003 2.1v.198c0 .997.637 1.846 1.524 2.162v.896A2.292 2.292 0 0 0 20 31.96a2.292 2.292 0 0 0 2.285-2.293v-.896a2.296 2.296 0 0 0 1.524-2.162v-.24c0-.827.437-1.63 1.201-2.202a8.39 8.39 0 0 0 3.369-6.73 8.396 8.396 0 0 0-10.177-8.219zM20 30.431a.764.764 0 0 1-.762-.764v-.765h1.524v.765a.764.764 0 0 1-.762.764zm4.099-7.489c-1.153.864-1.814 2.113-1.814 3.427v.24a.764.764 0 0 1-.762.765h-3.046a.764.764 0 0 1-.762-.765v-.198c0-1.37-.617-2.622-1.651-3.35-2.194-1.547-3.273-4.17-2.814-6.848.466-2.727 2.582-4.937 5.263-5.499 4.377-.917 8.342 2.376 8.342 6.723a6.821 6.821 0 0 1-2.756 5.505z"/>
        </g>
    </g>
</svg>
