<svg xmlns="http://www.w3.org/2000/svg" width="46" height="53" viewBox="0 0 46 53">
    <g fill="none" fill-rule="nonzero">
        <path fill="#CCF5DE" stroke="#00CC5A" stroke-width="2" d="M2.835 13.064L20.974 2.036a3.82 3.82 0 0 1 3.968 0l18.139 11.028a3.82 3.82 0 0 1 1.835 3.264v21.109a3.82 3.82 0 0 1-1.93 3.32l-18.14 10.319a3.82 3.82 0 0 1-3.777 0L2.931 40.756A3.82 3.82 0 0 1 1 37.438V16.328a3.82 3.82 0 0 1 1.835-3.264z"/>
        <path fill="#00CC5A" stroke="#00CC5A" stroke-width=".792" d="M20.039 28.499h-1.262a1.258 1.258 0 0 1-1.257-1.257v-2.748c0-.694.564-1.257 1.257-1.257h1.262v-.98c0-1.464.464-2.724 1.35-3.633.89-.915 2.13-1.397 3.572-1.397l2.166.004a1.258 1.258 0 0 1 1.255 1.257v2.551c0 .694-.563 1.257-1.256 1.257l-1.46.001c-.248 0-.319.021-.285-.018.03-.033.012.054.012.266v.692h1.623a1.26 1.26 0 0 1 1.265 1.258l-.002 2.747c0 .693-.563 1.257-1.256 1.257h-1.63v6.017c0 .693-.564 1.257-1.257 1.257h-2.84a1.258 1.258 0 0 1-1.257-1.257v-6.017zm1.832 5.441h1.69v-6.303c0-.536.435-.971.97-.971h1.916l.001-1.597h-1.917a.971.971 0 0 1-.97-.97v-1.554c0-.636.105-1.091.447-1.478.404-.459.947-.603 1.658-.603h.884v-1.401l-1.59-.003c-1.929 0-3.09 1.197-3.09 3.197v1.841a.971.971 0 0 1-.97.971h-1.547v1.597H20.9c.536 0 .97.435.97.971v6.303z"/>
        <path fill="#CCF5DE" d="M21.475 34.336h2.482v-6.699c0-.317.257-.575.574-.575h2.312l.001-2.389h-2.313a.575.575 0 0 1-.574-.575v-1.553c0-.406.04-.869.348-1.216.37-.42.954-.469 1.361-.469h1.28v-2.193l-1.987-.003c-2.149 0-3.484 1.377-3.484 3.593v1.841a.575.575 0 0 1-.575.575h-1.943v2.389H20.9c.317 0 .575.258.575.575v6.699z"/>
    </g>
</svg>
