<svg xmlns="http://www.w3.org/2000/svg" width="40" height="40" viewBox="0 0 40 40">
    <g fill="none" fill-rule="evenodd">
        <circle cx="20" cy="20" r="20" fill="#15D4EF" fill-rule="nonzero"/>
        <g fill="#FFF">
            <path fill-rule="nonzero" d="M28.632 12.368A11.425 11.425 0 0 0 20.5 9c-3.072 0-5.96 1.196-8.132 3.368A11.425 11.425 0 0 0 9 20.5c0 3.072 1.196 5.96 3.368 8.132A11.425 11.425 0 0 0 20.5 32c3.072 0 5.96-1.196 8.132-3.368A11.425 11.425 0 0 0 32 20.5c0-3.072-1.196-5.96-3.368-8.132zM20.5 30.628c-5.584 0-10.128-4.544-10.128-10.128 0-5.584 4.544-10.128 10.128-10.128 5.584 0 10.128 4.544 10.128 10.128 0 5.584-4.544 10.128-10.128 10.128z"/>
            <path fill-rule="nonzero" d="M27.347 19.814H13.653a.686.686 0 0 0-.686.686 7.49 7.49 0 0 0 2.14 5.259 7.474 7.474 0 0 0 5.393 2.274 7.474 7.474 0 0 0 5.393-2.273v-.001a7.49 7.49 0 0 0 2.14-5.259.686.686 0 0 0-.686-.686zM20.5 26.66a6.131 6.131 0 0 1-3.885-1.384 6.101 6.101 0 0 1 3.885-1.379c1.436 0 2.791.486 3.885 1.38A6.131 6.131 0 0 1 20.5 26.66zm6.123-5.475l-.013.1-.007.055a6.253 6.253 0 0 1-.02.14 6.132 6.132 0 0 1-1.233 2.813 7.462 7.462 0 0 0-4.85-1.768c-1.8 0-3.496.623-4.85 1.768a6.135 6.135 0 0 1-1.253-2.953l-.007-.055-.013-.1h12.246z"/>
            <path d="M15.345 18.274a.686.686 0 0 0 .686-.687v-.793a.641.641 0 0 1 1.281 0v.793a.686.686 0 0 0 1.373 0v-.793c0-1.11-.903-2.012-2.013-2.012-1.11 0-2.013.903-2.013 2.012v.793c0 .38.307.687.686.687zM23.002 18.274a.686.686 0 0 0 .686-.687v-.793a.641.641 0 0 1 1.28 0v.793a.686.686 0 0 0 1.373 0v-.793c0-1.11-.903-2.012-2.013-2.012-1.11 0-2.013.903-2.013 2.012v.793c0 .38.308.687.687.687z"/>
        </g>
    </g>
</svg>
