<svg xmlns="http://www.w3.org/2000/svg" width="53" height="63" viewBox="0 0 53 63">
    <g fill="none" fill-rule="evenodd">
        <path fill="#00CC5A" fill-rule="nonzero" d="M1.688 15.34l22.94-14.183a3.56 3.56 0 0 1 3.744 0l22.94 14.183A3.56 3.56 0 0 1 53 18.368v27.249a3.56 3.56 0 0 1-1.777 3.081l-22.94 13.27a3.56 3.56 0 0 1-3.566 0l-22.94-13.27A3.56 3.56 0 0 1 0 45.617v-27.25a3.56 3.56 0 0 1 1.688-3.027z"/>
        <path fill="#FFF" d="M34.663 33.555l-11.377 7.788C22.32 42.023 21 41.29 21 40.09V24.514c0-1.202 1.321-1.933 2.286-1.253l11.375 7.786c.865.574.865 1.933.002 2.507z"/>
    </g>
</svg>
