<svg xmlns="http://www.w3.org/2000/svg" width="40" height="40" viewBox="0 0 40 40">
    <g fill="none" fill-rule="nonzero">
        <circle cx="20" cy="20" r="5" fill="#15D4EF"/>
        <circle cx="20" cy="20" r="20" fill="#15D4EF"/>
        <path fill="#FFF" d="M25.598 16.576c-.596 0-1.14.233-1.548.614a2.264 2.264 0 0 0-1.549-.614c-.596 0-1.14.233-1.55.614a2.305 2.305 0 0 0-.567-.387 5.48 5.48 0 0 0 1.19-3.41C21.574 10.42 19.21 8 16.307 8c-2.905 0-5.268 2.42-5.268 5.394 0 2.07 1.171 3.955 2.964 4.85v6.579c0 3.923 3.117 7.115 6.948 7.115 3.832 0 6.95-3.192 6.95-7.115v-5.89c0-1.3-1.033-2.357-2.303-2.357zm-13.05-3.182c0-2.122 1.686-3.849 3.759-3.849 2.072 0 3.758 1.727 3.758 3.849a3.898 3.898 0 0 1-1.455 3.04v-3.04c0-1.3-1.034-2.36-2.303-2.36-1.27 0-2.304 1.06-2.304 2.36v3.04a3.897 3.897 0 0 1-1.456-3.04zm13.844 11.429c0 3.07-2.44 5.57-5.44 5.57-3 0-5.44-2.5-5.44-5.57v-7.05a.763.763 0 0 0 0-.077v-4.302c0-.449.356-.814.795-.814.438 0 .794.365.794.814v7.234c0 .427.338.773.754.773a.764.764 0 0 0 .755-.773v-1.694c0-.448.356-.813.793-.813.438 0 .794.365.794.813v1.694c0 .427.338.773.755.773a.764.764 0 0 0 .754-.773v-1.694c0-.448.357-.813.795-.813.438 0 .794.365.794.813v1.694c0 .427.338.773.755.773a.764.764 0 0 0 .754-.773v-1.694c0-.448.356-.813.794-.813.438 0 .794.365.794.813v5.889z"/>
    </g>
</svg>
