<svg xmlns="http://www.w3.org/2000/svg" width="40" height="40" viewBox="0 0 40 40">
    <g fill="none" fill-rule="nonzero">
        <circle cx="20" cy="20" r="20" fill="#15D4EF"/>
        <path fill="#FFF" d="M34 16.097C34 11.632 30.4 8 25.977 8a7.978 7.978 0 0 0-5.477 2.18A7.978 7.978 0 0 0 15.023 8C10.6 8 7 11.632 7 16.097c0 2.072.634 4.098 1.886 6.027l-.607.768a2.457 2.457 0 0 0 .382 3.427 2.39 2.39 0 0 0 2.114.453 2.42 2.42 0 0 0 2.561 1.647l.015-.002a2.43 2.43 0 0 0 .853 1.386 2.39 2.39 0 0 0 2.074.462c.14.442.406.849.792 1.16a2.384 2.384 0 0 0 1.778.516 2.396 2.396 0 0 0 1.618-.903l.245-.31.011-.002a.795.795 0 0 0 .066-.023h.002c.18-.07 3.333-1.318 6.532-3.684 1.915-1.416 3.445-2.942 4.55-4.533 1.41-2.036 2.127-4.184 2.128-6.385v-.004zM18.062 30.169a.83.83 0 0 1-.305-.558.832.832 0 0 1 .175-.613l1.405-1.779a.821.821 0 0 1 1.16-.131c.173.138.281.336.306.558a.832.832 0 0 1-.175.612l-1.406 1.779a.821.821 0 0 1-1.16.132zm-2.866-1.621a.839.839 0 0 1-.13-1.17l1.405-1.78a.818.818 0 0 1 1.16-.132.83.83 0 0 1 .306.558.833.833 0 0 1-.175.613l-1.406 1.779a.821.821 0 0 1-1.16.132zm-5.542-3.484a.839.839 0 0 1-.131-1.17l1.406-1.78a.818.818 0 0 1 1.16-.131.83.83 0 0 1 .305.558.833.833 0 0 1-.175.612l-1.405 1.78a.821.821 0 0 1-1.16.131zm2.897 1.582a.83.83 0 0 1-.305-.557.833.833 0 0 1 .175-.613l1.405-1.779a.822.822 0 0 1 1.16-.132.839.839 0 0 1 .13 1.17l-1.405 1.78a.818.818 0 0 1-1.16.131zm13.858-.943a29.887 29.887 0 0 1-4.054 2.506c.047-.242.057-.492.03-.743a2.429 2.429 0 0 0-.896-1.634 2.396 2.396 0 0 0-2.072-.463 2.421 2.421 0 0 0-2.571-1.675l-.015.002a2.43 2.43 0 0 0-.853-1.386 2.398 2.398 0 0 0-2.113-.453 2.423 2.423 0 0 0-2.562-1.646c-.505.057-.969.269-1.34.605-.795-1.343-1.327-2.853-1.369-4.508v-.013a7.932 7.932 0 0 1-.003-.198c0-3.58 2.886-6.491 6.432-6.491 1.638 0 3.202.628 4.388 1.744l-3.593 3.973c-.674.746-.8 1.8-.321 2.684a2.28 2.28 0 0 0 2.421 1.18c2.25-.387 4.365-1.48 6.294-3.254l6.022 6.077c-1.127 1.493-2.535 2.736-3.825 3.693zm4.726-5.055l-6.347-6.405a.79.79 0 0 0-1.126 0c-1.844 1.861-3.866 2.992-6.012 3.362a.701.701 0 0 1-.757-.368.706.706 0 0 1 .1-.832l4.095-4.527.007-.01.008-.007a6.406 6.406 0 0 1 4.874-2.255c3.545 0 6.43 2.91 6.431 6.488v.003c0 1.669-.5 3.192-1.273 4.55z"/>
    </g>
</svg>
