<svg xmlns="http://www.w3.org/2000/svg" width="48" height="44" viewBox="0 0 48 44">
    <g fill="#15D4EF" fill-rule="evenodd">
        <path fill-rule="nonzero" d="M31.811 18.938l-7.404-4.919 2.257-4.498a1.398 1.398 0 0 0-.436-1.764 1.41 1.41 0 0 0-1.816.146l-8.438 8.408a1.397 1.397 0 0 0 .215 2.157l7.404 4.918-2.257 4.499a1.399 1.399 0 0 0 .436 1.764 1.41 1.41 0 0 0 1.816-.146l8.438-8.408a1.397 1.397 0 0 0-.215-2.157zm-5.088 3.477a1.4 1.4 0 0 0-.537-.674l-7.01-4.657 2.1-2.094c.101.268.284.506.538.675l7.01 4.657-2.1 2.093z"/>
        <path d="M46.594 15.9h-2.907c-.776 0-1.406.628-1.406 1.402 0 .773.63 1.401 1.407 1.401h2.906c.776 0 1.406-.628 1.406-1.401 0-.774-.63-1.402-1.406-1.402zM0 17.302c0 .773.63 1.401 1.406 1.401h2.907c.776 0 1.406-.628 1.406-1.401 0-.774-.63-1.402-1.407-1.402H1.406C.63 15.9 0 16.528 0 17.302zM40.904.457a1.41 1.41 0 0 0-1.988 0l-1.99 1.982a1.398 1.398 0 0 0 0 1.982 1.41 1.41 0 0 0 1.99 0l1.988-1.982c.55-.547.55-1.435 0-1.982zM7.096 34.146a1.41 1.41 0 0 0 1.989 0l1.988-1.982c.55-.547.55-1.434 0-1.982a1.41 1.41 0 0 0-1.988 0l-1.99 1.982a1.397 1.397 0 0 0 0 1.982zM9.085.457a1.41 1.41 0 0 0-1.99 0 1.397 1.397 0 0 0 0 1.982l1.99 1.982a1.41 1.41 0 0 0 1.988 0c.55-.548.55-1.435 0-1.982L9.085.457zM38.915 30.182a1.41 1.41 0 0 0-1.988 0 1.398 1.398 0 0 0 0 1.982l1.989 1.982a1.41 1.41 0 0 0 1.988 0c.55-.547.55-1.434 0-1.982l-1.989-1.982z"/>
        <path fill-rule="nonzero" d="M20.68 2.233C14.61 3.497 9.822 8.46 8.766 14.582c-1.032 5.987 1.401 11.858 6.35 15.322 1.16.812 1.853 2.251 1.853 3.85v.363a4.21 4.21 0 0 0 2.812 3.963v1.642c0 2.318 1.893 4.204 4.219 4.204 2.326 0 4.219-1.886 4.219-4.204V38.08a4.21 4.21 0 0 0 2.812-3.963v-.44c0-1.517.808-2.988 2.218-4.037 3.798-2.825 6.22-7.315 6.22-12.338 0-9.715-8.925-17.122-18.789-15.069zM24 41.123a1.406 1.406 0 0 1-1.406-1.4V38.32h2.812v1.401c0 .773-.63 1.401-1.406 1.401zm7.567-13.728c-2.128 1.583-3.348 3.872-3.348 6.282v.44c0 .773-.631 1.401-1.407 1.401h-5.625a1.406 1.406 0 0 1-1.406-1.401v-.363c0-2.51-1.14-4.807-3.048-6.143-4.05-2.835-6.041-7.645-5.195-12.554.862-5 4.767-9.05 9.717-10.08 8.08-1.682 15.401 4.354 15.401 12.325 0 4.008-1.855 7.686-5.09 10.093z"/>
    </g>
</svg>
