<svg xmlns="http://www.w3.org/2000/svg" width="23" height="21" viewBox="0 0 23 21">
    <g fill="#FFF" fill-rule="evenodd">
        <path fill-rule="nonzero" d="M15.243 9.039L11.695 6.69l1.081-2.147a.666.666 0 0 0-.208-.842.678.678 0 0 0-.87.07L7.653 7.785a.665.665 0 0 0 .103 1.03l3.548 2.347-1.082 2.147a.666.666 0 0 0 .21.841c.27.194.638.16.87-.07l4.043-4.012a.665.665 0 0 0-.103-1.03zm-2.438 1.66a.669.669 0 0 0-.257-.323l-3.36-2.222 1.007-1a.667.667 0 0 0 .257.322l3.36 2.223-1.007 1z"/>
        <path d="M22.326 7.589h-1.392c-.373 0-.674.3-.674.669 0 .369.301.668.674.668h1.392c.372 0 .674-.3.674-.668a.671.671 0 0 0-.674-.67zM0 8.258c0 .369.302.668.674.668h1.392c.373 0 .674-.3.674-.668a.671.671 0 0 0-.674-.67H.674c-.372 0-.674.3-.674.67zM19.6.218a.677.677 0 0 0-.953 0l-.953.946a.665.665 0 0 0 0 .946c.263.26.69.26.953 0l.953-.946a.665.665 0 0 0 0-.946zM3.4 16.297c.263.261.69.261.953 0l.953-.946a.665.665 0 0 0 0-.946.677.677 0 0 0-.953 0l-.953.946a.665.665 0 0 0 0 .946zM4.353.218a.677.677 0 0 0-.953 0 .665.665 0 0 0 0 .946l.953.946c.263.26.69.26.953 0a.665.665 0 0 0 0-.946L4.353.218zM18.647 14.405a.677.677 0 0 0-.953 0 .665.665 0 0 0 0 .946l.953.946c.263.261.69.261.953 0a.665.665 0 0 0 0-.946l-.953-.946z"/>
        <path fill-rule="nonzero" d="M9.91 1.066C7 1.669 4.705 4.037 4.2 6.96c-.494 2.857.672 5.66 3.043 7.312.556.388.888 1.075.888 1.838v.173a2.01 2.01 0 0 0 1.348 1.891v.784c0 1.107.906 2.007 2.021 2.007 1.115 0 2.021-.9 2.021-2.007v-.784a2.01 2.01 0 0 0 1.348-1.89v-.21c0-.725.387-1.427 1.063-1.928a7.316 7.316 0 0 0 2.98-5.888c0-4.637-4.276-8.172-9.003-7.192zm1.59 18.561a.672.672 0 0 1-.674-.669v-.669h1.348v.67a.672.672 0 0 1-.674.668zm3.626-6.552c-1.02.755-1.605 1.848-1.605 2.998v.21a.672.672 0 0 1-.673.669h-2.696a.672.672 0 0 1-.673-.669v-.173c0-1.198-.547-2.295-1.461-2.932-1.941-1.353-2.895-3.649-2.49-5.992a5.994 5.994 0 0 1 4.657-4.81c3.872-.803 7.38 2.077 7.38 5.882a5.947 5.947 0 0 1-2.44 4.817z"/>
    </g>
</svg>
