<svg xmlns="http://www.w3.org/2000/svg" width="46" height="53" viewBox="0 0 46 53">
    <g fill="none" fill-rule="nonzero">
        <path fill="#CCF5DE" stroke="#00CC5A" stroke-width="2" d="M2.92 13.064L21.057 2.036a3.82 3.82 0 0 1 3.968 0l18.139 11.028A3.82 3.82 0 0 1 45 16.328v21.109a3.82 3.82 0 0 1-1.93 3.32L24.93 51.076a3.82 3.82 0 0 1-3.777 0L3.015 40.756a3.82 3.82 0 0 1-1.931-3.319V16.328a3.82 3.82 0 0 1 1.835-3.264z"/>
        <path fill="#CCF5DE" d="M30.663 30.407c0 1.822-1.502 3.305-3.348 3.305h-8.011c-1.846 0-3.348-1.483-3.348-3.305v-7.911c0-1.823 1.502-3.306 3.348-3.306h8.011c1.846 0 3.348 1.483 3.348 3.306v7.91z"/>
        <g fill="#00CC5A">
            <path stroke="#00CC5A" stroke-width=".3" d="M27.315 17.473c2.804 0 5.085 2.253 5.085 5.023v7.91c0 2.77-2.281 5.023-5.085 5.023h-8.011c-2.803 0-5.084-2.253-5.084-5.022v-7.911c0-2.77 2.28-5.023 5.084-5.023h8.011zm3.198 12.934v-7.911c0-1.74-1.434-3.156-3.198-3.156h-8.011c-1.764 0-3.198 1.416-3.198 3.156v7.91c0 1.74 1.434 3.156 3.198 3.156h8.011c1.764 0 3.198-1.416 3.198-3.155z"/>
            <path stroke="#00CC5A" stroke-width=".3" d="M23.31 21.752c2.623 0 4.757 2.107 4.757 4.7 0 2.591-2.134 4.698-4.757 4.698-2.623 0-4.758-2.107-4.758-4.699 0-2.592 2.135-4.7 4.758-4.7zm0 7.532c1.583 0 2.87-1.271 2.87-2.833 0-1.561-1.287-2.833-2.87-2.833-1.584 0-2.871 1.272-2.871 2.833 0 1.562 1.287 2.833 2.87 2.833z"/>
            <path d="M28.11 20.574c-.306 0-.606.122-.822.336-.217.213-.341.51-.341.812 0 .302.125.599.341.813.216.213.516.336.822.336.307 0 .606-.123.823-.336.217-.214.34-.51.34-.813 0-.303-.123-.6-.34-.812a1.176 1.176 0 0 0-.823-.336z"/>
        </g>
    </g>
</svg>
