<svg xmlns="http://www.w3.org/2000/svg" width="21" height="21" viewBox="0 0 21 21">
    <path fill="#FFF" fill-rule="nonzero" d="M20.623.278a.858.858 0 0 0-.66-.167L7.247 2.121c-.39.061-.676.375-.676.742v10.491H4.11c-2.253 0-4.086 1.701-4.086 3.792 0 2.092 1.833 3.793 4.086 3.793s4.086-1.701 4.086-3.793V7.927l11.092-1.753v5.17h-2.462c-2.253 0-4.086 1.702-4.086 3.793s1.833 3.792 4.086 3.792 4.086-1.701 4.086-3.792V.854a.733.733 0 0 0-.288-.576zM4.109 19.432c-1.358 0-2.462-1.025-2.462-2.286 0-1.26 1.105-2.285 2.462-2.285h2.462v2.285c0 1.26-1.104 2.286-2.462 2.286zM8.195 3.5l11.092-1.753v2.899L8.195 6.399v-2.9zm8.63 13.922c-1.358 0-2.462-1.025-2.462-2.285 0-1.26 1.104-2.286 2.462-2.286h2.462v2.286c0 1.26-1.104 2.285-2.462 2.285z"/>
</svg>
