<svg xmlns="http://www.w3.org/2000/svg" width="40" height="40" viewBox="0 0 40 40">
    <g fill="none" fill-rule="nonzero">
        <circle cx="20" cy="20" r="20" fill="#15D4EF"/>
        <g fill="#FFF">
            <path d="M31.433 17.904l-2.687-.53a9.071 9.071 0 0 0-.707-1.701l1.495-2.244a.703.703 0 0 0-.088-.887l-1.988-1.988a.703.703 0 0 0-.887-.088l-2.244 1.495a9.071 9.071 0 0 0-1.702-.707l-.529-2.687a.703.703 0 0 0-.69-.567h-2.812a.703.703 0 0 0-.69.567l-.53 2.687c-.59.177-1.159.414-1.701.707l-2.244-1.495a.703.703 0 0 0-.887.088l-1.988 1.988a.703.703 0 0 0-.088.887l1.495 2.244a9.084 9.084 0 0 0-.707 1.702l-2.687.529a.703.703 0 0 0-.567.69v2.812c0 .336.238.625.567.69l2.687.53c.177.59.414 1.159.707 1.701l-1.495 2.244a.703.703 0 0 0 .088.887l1.988 1.988a.703.703 0 0 0 .887.088l2.244-1.495c.542.293 1.112.53 1.702.707l.529 2.687c.065.33.354.567.69.567h2.812a.703.703 0 0 0 .69-.567l.53-2.687a9.071 9.071 0 0 0 1.701-.707l2.244 1.495c.278.186.65.15.887-.088l1.988-1.988a.703.703 0 0 0 .088-.887l-1.495-2.244c.293-.542.53-1.112.707-1.702l2.687-.529a.703.703 0 0 0 .567-.69v-2.812a.703.703 0 0 0-.567-.69zm-.84 2.924l-2.546.502a.703.703 0 0 0-.547.521 7.678 7.678 0 0 1-.889 2.14.703.703 0 0 0 .017.755l1.417 2.125-1.174 1.174-2.125-1.417a.703.703 0 0 0-.755-.016 7.677 7.677 0 0 1-2.14.888.703.703 0 0 0-.521.547l-.502 2.547h-1.656l-.502-2.547a.703.703 0 0 0-.521-.547 7.677 7.677 0 0 1-2.14-.889.703.703 0 0 0-.755.017l-2.125 1.417-1.174-1.174 1.417-2.125a.703.703 0 0 0 .017-.755 7.68 7.68 0 0 1-.89-2.14.703.703 0 0 0-.546-.521l-2.547-.502v-1.656l2.547-.502a.703.703 0 0 0 .547-.521 7.683 7.683 0 0 1 .889-2.14.703.703 0 0 0-.017-.755l-1.417-2.125 1.174-1.174 2.125 1.417a.703.703 0 0 0 .755.017 7.683 7.683 0 0 1 2.14-.89.703.703 0 0 0 .521-.546l.502-2.547h1.656l.502 2.547a.703.703 0 0 0 .521.547 7.677 7.677 0 0 1 2.14.889.703.703 0 0 0 .755-.017l2.125-1.417 1.174 1.174-1.417 2.125a.703.703 0 0 0-.017.755c.404.665.703 1.385.89 2.14a.703.703 0 0 0 .546.521l2.547.502v1.656z"/>
            <path d="M20 13.672A6.335 6.335 0 0 0 13.672 20 6.335 6.335 0 0 0 20 26.328 6.335 6.335 0 0 0 26.328 20 6.335 6.335 0 0 0 20 13.672zm0 11.25A4.927 4.927 0 0 1 15.078 20 4.927 4.927 0 0 1 20 15.078 4.927 4.927 0 0 1 24.922 20 4.927 4.927 0 0 1 20 24.922z"/>
            <path d="M20 16.484A3.52 3.52 0 0 0 16.484 20 3.52 3.52 0 0 0 20 23.516 3.52 3.52 0 0 0 23.516 20 3.52 3.52 0 0 0 20 16.484zm0 5.625A2.112 2.112 0 0 1 17.89 20c0-1.163.947-2.11 2.11-2.11 1.163 0 2.11.947 2.11 2.11 0 1.163-.947 2.11-2.11 2.11z"/>
        </g>
    </g>
</svg>
