<svg xmlns="http://www.w3.org/2000/svg" width="51" height="44" viewBox="0 0 51 44">
    <g fill="#15D4EF" fill-rule="evenodd">
        <path fill-rule="nonzero" d="M49.506 1.962c-5.628 0-10.257-2.564-15.587-1.827-2.967.41-5.67 1.773-8.419 4.26-2.748-2.487-5.452-3.85-8.419-4.26-5.33-.736-9.96 1.827-15.587 1.827C.67 1.962 0 2.634 0 3.462v36c0 .829.669 1.5 1.494 1.5 3.585 0 6.672-.689 9.11-1.224 4.919-1.087 6.241-1.38 9.686 2.098 2.857 2.883 7.567 2.882 10.423-.001 3.443-3.476 4.765-3.184 9.683-2.097l.012.002c2.322.516 5.502 1.222 9.098 1.222.825 0 1.494-.671 1.494-1.5v-36c0-.828-.669-1.5-1.494-1.5zM2.988 4.912c8.332-.547 13.408-5.104 21.018 2.183V33.15c-2.245-1.705-4.496-2.68-6.925-3.015-4.853-.67-9.11 1.391-14.093 1.77V4.912zm45.024 33.006c-5.837-.342-9.863-2.368-13.42-1.812-2.007.314-3.8 1.395-5.998 3.613-1.684 1.7-4.495 1.707-6.185.001-2.199-2.219-3.993-3.3-6-3.613-3.563-.558-7.555 1.468-13.42 1.81v-3.005c8.504-.559 13.596-5.279 21.454 2.61a1.493 1.493 0 0 0 2.114 0c7.858-7.888 12.95-3.169 21.455-2.61v3.006zm0-6.014c-4.982-.378-9.24-2.44-14.093-1.769-2.429.336-4.68 1.31-6.925 3.015V7.095c7.61-7.287 12.686-2.73 21.018-2.182v26.991z"/>
        <path d="M20.432 10.948c-1.747-1.344-3.393-1.943-5.337-1.943-1.51 0-3.105.353-5.123.8l-.025.006c-.81.18-1.726.383-2.656.561a1.5 1.5 0 0 0-1.189 1.754A1.495 1.495 0 0 0 7.85 13.32c2.984-.57 5.478-1.314 7.245-1.314 1.277 0 2.297.384 3.52 1.324a1.49 1.49 0 0 0 2.094-.278c.502-.658.378-1.6-.277-2.103zM20.432 16.948c-1.747-1.344-3.393-1.943-5.337-1.943-2.195 0-4.727.779-7.804 1.367a1.5 1.5 0 0 0 .559 2.947c3.013-.576 5.473-1.314 7.245-1.314 1.277 0 2.297.384 3.52 1.324a1.49 1.49 0 0 0 2.094-.278c.502-.658.378-1.6-.277-2.103zM20.432 22.948c-1.747-1.344-3.393-1.943-5.337-1.943-2.195 0-4.727.779-7.804 1.367a1.5 1.5 0 0 0 .559 2.947c2.984-.57 5.478-1.314 7.245-1.314 1.277 0 2.297.384 3.52 1.324a1.49 1.49 0 0 0 2.094-.278c.502-.658.378-1.6-.277-2.103zM43.71 10.372c-3.103-.593-5.603-1.367-7.805-1.367-1.944 0-3.59.6-5.337 1.943a1.504 1.504 0 0 0-.278 2.103 1.49 1.49 0 0 0 2.095.278c1.223-.94 2.243-1.324 3.52-1.324 1.769 0 4.256.743 7.245 1.314.81.155 1.593-.379 1.747-1.193a1.5 1.5 0 0 0-1.188-1.754zM43.71 16.372c-3.103-.593-5.603-1.367-7.805-1.367-1.944 0-3.59.6-5.337 1.943a1.504 1.504 0 0 0-.278 2.103 1.49 1.49 0 0 0 2.095.278c1.223-.94 2.243-1.324 3.52-1.324 1.769 0 4.256.743 7.245 1.314.81.155 1.593-.379 1.747-1.193a1.5 1.5 0 0 0-1.188-1.754zM43.71 22.372c-3.103-.593-5.603-1.367-7.805-1.367-1.944 0-3.59.6-5.337 1.943a1.504 1.504 0 0 0-.278 2.103 1.49 1.49 0 0 0 2.095.278c1.223-.94 2.243-1.324 3.52-1.324 1.769 0 4.256.743 7.245 1.314.81.155 1.593-.379 1.747-1.193a1.5 1.5 0 0 0-1.188-1.754z"/>
    </g>
</svg>
