<svg xmlns="http://www.w3.org/2000/svg" width="40" height="40" viewBox="0 0 40 40">
    <g fill="none" fill-rule="evenodd">
        <circle cx="20" cy="20" r="20" fill="#15D4EF" fill-rule="nonzero"/>
        <circle cx="21" cy="21" r="5" fill="#15D4EF" fill-rule="nonzero"/>
        <g fill="#FFF">
            <path d="M9.799 15.93a.799.799 0 0 0 .798-.798v-3.405l5.144 5.143a.796.796 0 0 0 1.13 0 .798.798 0 0 0 0-1.13l-5.145-5.143h3.406a.799.799 0 0 0 0-1.597H9.8A.799.799 0 0 0 9 9.8v5.333c0 .441.357.799.799.799zM31.132 25a.799.799 0 0 0-.798.799v3.405l-5.302-5.302a.799.799 0 0 0-1.13 1.13l5.302 5.301h-3.405a.799.799 0 1 0 0 1.597h5.333a.799.799 0 0 0 .799-.798v-5.333a.799.799 0 0 0-.799-.799zM15.9 23.902l-5.302 5.302v-3.405a.799.799 0 1 0-1.597 0v5.333c0 .441.357.799.798.799h5.333a.799.799 0 0 0 0-1.598h-3.405l5.302-5.302a.799.799 0 1 0-1.13-1.129zM31.132 9H25.8a.799.799 0 1 0 0 1.597h3.405l-5.143 5.144a.799.799 0 1 0 1.13 1.129l5.143-5.143v3.405a.799.799 0 1 0 1.597 0V9.8A.799.799 0 0 0 31.132 9z"/>
        </g>
    </g>
</svg>
