<svg xmlns="http://www.w3.org/2000/svg" width="40" height="40" viewBox="0 0 40 40">
    <g fill="none" fill-rule="nonzero">
        <circle cx="20" cy="20" r="20" fill="#15D4EF"/>
        <g fill="#FFF">
            <path d="M34.397 27.938l-.628-1.204c1.643-4.316 1.641-9.157-.003-13.423l.636-1.26c1.095-2.162-1.235-4.474-3.426-3.388l-.007.003-1.32.668A36.305 36.305 0 0 0 20 8.03c-3.284 0-6.515.44-9.61 1.31l-1.366-.676c-2.188-1.086-4.521 1.224-3.426 3.389l.005.01.628 1.205c-1.643 4.315-1.641 9.157.003 13.423l-.636 1.26c-1.094 2.165 1.239 4.473 3.426 3.387l.007-.003 1.32-.668A36.313 36.313 0 0 0 20 31.971c3.284 0 6.515-.44 9.61-1.31 1.412.7 1.754.944 2.508.944 1.893 0 3.134-1.975 2.284-3.657l-.005-.01zm-2.574-.705l.826 1.588a.586.586 0 0 1-.53.843c-.188 0-.122.008-1.975-.908a.99.99 0 0 0-.717-.063A33.514 33.514 0 0 1 20 30.03c-3.208 0-6.398-.449-9.48-1.334a.99.99 0 0 0-.72.068l-1.658.84c-.506.247-1.042-.288-.79-.787l.833-1.647a.961.961 0 0 0 .03-.802c-1.672-4.038-1.672-8.7 0-12.793a.96.96 0 0 0-.037-.808L7.35 11.18c-.249-.5.289-1.031.795-.78l1.71.846c.223.11.48.132.718.062A33.498 33.498 0 0 1 20 9.97c3.209 0 6.398.449 9.479 1.334.24.069.497.045.72-.068l1.659-.84c.51-.249 1.04.29.79.787l-.833 1.648a.961.961 0 0 0-.03.802c1.672 4.037 1.673 8.7 0 12.792a.961.961 0 0 0 .038.808z"/>
            <path d="M23.132 14.22c-1.232 0-2.305.537-3.116 1.558-.811-1.02-1.884-1.559-3.116-1.559-2.379 0-4.097 1.937-4.097 4.28 0 2.43 1.87 3.93 4.458 6.006.638.512 1.36 1.091 2.116 1.732a.989.989 0 0 0 1.277 0c.756-.64 1.479-1.22 2.116-1.732C25.36 22.43 27.23 20.93 27.23 18.5c0-2.416-1.807-4.28-4.097-4.28zm-1.597 8.778c-.467.374-.979.785-1.52 1.231-.54-.446-1.052-.857-1.519-1.232-2.52-2.021-3.731-3.057-3.731-4.498 0-1.134.748-2.339 2.135-2.339 1.578 0 2.146 1.849 2.172 1.938a.98.98 0 0 0 .944.705.98.98 0 0 0 .944-.71c.006-.019.566-1.933 2.172-1.933 1.298 0 2.135 1.066 2.135 2.34 0 1.44-1.212 2.476-3.732 4.498z"/>
        </g>
    </g>
</svg>
