<svg xmlns="http://www.w3.org/2000/svg" width="40" height="40" viewBox="0 0 40 40">
    <g fill="none" fill-rule="evenodd">
        <circle cx="20" cy="20" r="20" fill="#15D4EF" fill-rule="nonzero"/>
        <g fill="#FFF">
            <path fill-rule="nonzero" d="M26.914 8H13.086c-1.14 0-2.067.946-2.067 2.11v19.78c0 1.164.927 2.11 2.067 2.11h13.828c1.14 0 2.067-.946 2.067-2.11V10.11c0-1.164-.927-2.11-2.067-2.11zm.69 21.89a.697.697 0 0 1-.69.704H13.086a.697.697 0 0 1-.69-.703v-1.746h15.207v1.746zm0-3.151H12.396V13.262h15.206v13.477zm0-14.884H12.396V10.11c0-.387.309-.703.689-.703h13.828c.38 0 .69.316.69.703v1.746z"/>
            <path d="M20.689 28.572H19.31a.696.696 0 0 0-.689.703c0 .389.309.703.69.703h1.377c.38 0 .689-.314.689-.703a.696.696 0 0 0-.69-.703zM20.94 22.37a1.313 1.313 0 0 0-1.88 0 .714.714 0 0 0 0 .994c.257.264.67.274.94.032a.678.678 0 0 0 .94-.032.714.714 0 0 0 0-.994z"/>
            <path d="M22.539 20.739a3.542 3.542 0 0 0-5.078 0 .714.714 0 0 0 0 .994.679.679 0 0 0 .975 0 2.183 2.183 0 0 1 3.129 0 .68.68 0 0 0 .974 0 .714.714 0 0 0 0-.994z"/>
            <path d="M24.111 19.133a5.737 5.737 0 0 0-8.223 0 .714.714 0 0 0 0 .994.679.679 0 0 0 .975 0 4.378 4.378 0 0 1 6.274 0 .68.68 0 0 0 .974 0 .714.714 0 0 0 0-.994z"/>
        </g>
    </g>
</svg>
