<svg xmlns="http://www.w3.org/2000/svg" width="46" height="53" viewBox="0 0 46 53">
    <g fill="none" fill-rule="nonzero">
        <path fill="#CCF5DE" stroke="#00CC5A" stroke-width="2" d="M2.877 13.064L21.016 2.036a3.82 3.82 0 0 1 3.968 0l18.139 11.028a3.82 3.82 0 0 1 1.835 3.264v21.109a3.82 3.82 0 0 1-1.93 3.32l-18.14 10.319a3.82 3.82 0 0 1-3.777 0L2.973 40.756a3.82 3.82 0 0 1-1.931-3.319V16.328a3.82 3.82 0 0 1 1.835-3.264z"/>
        <path fill="#00CC5A" stroke="#00CC5A" stroke-width=".792" d="M14.675 31.2c-.803-.6-1.394-1.44-1.779-2.517a1.392 1.392 0 0 1 .426-1.583 7.047 7.047 0 0 1-1.176-2.263l-.017-.064-.006-.03c-.125-.62.155-1.262.68-1.543a1.49 1.49 0 0 1 .15-.075 5.452 5.452 0 0 1-.242-.854c-.239-1.221-.042-2.446.578-3.623l.134-.267a1.148 1.148 0 0 1 1.834-.296l.251.25c1.8 1.871 3.399 2.785 6.055 3.415a5.642 5.642 0 0 1 1.474-2.831 5.448 5.448 0 0 1 3.876-1.691h.009c.874 0 1.917.364 3.003.925.494-.168 1.064-.398 2.005-.798a1.41 1.41 0 0 1 1.574.275c.401.398.515.968.309 1.496a5.651 5.651 0 0 1-.072.188 1.476 1.476 0 0 1 .448 1.47l-.012.043c-.31.988-.888 1.814-1.66 2.37-.232 6.982-5.577 12.576-12.108 12.576-3.7 0-6.638-.644-8.094-1.807l-.058-.05-.024-.023c-.431-.428-.577-1.008-.385-1.58l.017-.045c.23-.568.788-.95 1.395-.953.508-.009.977-.047 1.415-.114zm.724 1.959c1.302.356 3.06.56 5.01.56 2.658 0 5.167-1.131 7.069-3.193 1.924-2.085 2.984-4.856 2.984-7.805v-.034c0-.424.235-.81.612-1.008.28-.147.527-.367.73-.645a1.146 1.146 0 0 1-.632-1.148c-.37.14-.689.252-.984.34-.309.093-.65.057-.93-.1-.96-.529-1.847-.844-2.326-.845-1.879.028-3.413 1.631-3.413 3.577a1.148 1.148 0 0 1-1.367 1.118c-3.295-.643-5.354-1.6-7.38-3.479a3.184 3.184 0 0 0-.036 1.382c.13.659.477 1.328 1.01 1.931a1.141 1.141 0 1 1-.89 1.892 6.16 6.16 0 0 0 1.531 1.484c.427.29.606.832.434 1.318a1.146 1.146 0 0 1-1.246.752c.46.487 1.075.782 1.91.926a1.138 1.138 0 0 1 .34 2.13 8.756 8.756 0 0 1-2.426.847z"/>
        <path fill="#CCF5DE" d="M13.782 32.954c1.289.724 3.746 1.162 6.627 1.162 2.77 0 5.384-1.18 7.36-3.321 1.992-2.16 3.09-5.027 3.09-8.074v-.034c0-.276.153-.528.4-.658.5-.262.904-.71 1.167-1.282a.75.75 0 0 1-.717-.291.735.735 0 0 1-.005-.88c.104-.143.199-.291.283-.445-.69.287-1.344.545-1.913.716a.82.82 0 0 1-.625-.067c-1.012-.559-1.955-.893-2.523-.895-2.098.032-3.803 1.813-3.803 3.973a.752.752 0 0 1-.895.73c-3.456-.675-5.503-1.688-7.633-3.81-.305.725-.388 1.456-.247 2.177.143.73.523 1.463 1.1 2.117.22.249.249.604.073.885a.747.747 0 0 1-.83.324 3.451 3.451 0 0 1-.698-.266c.445.958 1.21 1.844 2.171 2.498.28.19.396.543.284.86a.75.75 0 0 1-.763.495 3.395 3.395 0 0 1-.995-.214c.539 1.09 1.4 1.689 2.728 1.918a.742.742 0 1 1 .223 1.39c-1.131.595-2.368.914-3.86.992z"/>
    </g>
</svg>
